<svg width="100" height="100" viewBox="0 0 100 100" fill="none" xmlns="http://www.w3.org/2000/svg">
<g clip-path="url(#clip0_731_3083)">
<path d="M49.9996 -0.000104473C22.3861 -0.000104473 0 22.3857 0 49.9999C0 77.6148 22.3861 99.9999 49.9996 99.9999C77.6162 99.9999 100 77.6156 100 49.9999C100 22.3872 77.6162 0.00214558 49.9989 0.00214558L49.9996 -0.000854492V-0.000104473ZM72.9294 72.1149C72.0339 73.5835 70.1117 74.05 68.6424 73.1477C56.9034 65.9768 42.1246 64.353 24.7201 68.3296C23.0431 68.7114 21.3713 67.6606 20.9888 65.9828C20.6048 64.305 21.6518 62.6332 23.3333 62.2515C42.3796 57.8998 58.7169 59.7734 71.8967 67.8278C73.3659 68.7294 73.8317 70.6457 72.9294 72.1149ZM79.0494 58.5006C77.9207 60.3344 75.5207 60.9134 73.6877 59.7854C60.2477 51.5239 39.7614 49.1314 23.8643 53.9577C21.8026 54.5803 19.6253 53.4185 18.9998 51.3604C18.3788 49.2986 19.5413 47.1258 21.5993 46.4988C39.7576 40.9892 62.3319 43.6577 77.7662 53.1425C79.5992 54.2713 80.1782 56.6713 79.0502 58.5021V58.5014L79.0494 58.5006ZM79.5752 44.3238C63.4599 34.752 36.8731 33.8722 21.4876 38.5419C19.017 39.2911 16.404 37.8968 15.6555 35.4255C14.907 32.9535 16.3005 30.3427 18.7725 29.5919C36.4343 24.23 65.7947 25.2658 84.3482 36.2806C86.575 37.5998 87.304 40.4694 85.984 42.6887C84.67 44.911 81.7922 45.6438 79.5775 44.3238H79.5752Z" fill="black"/>
</g>
<defs>
<clipPath id="clip0_731_3083">
<rect width="100" height="100" fill="white"/>
</clipPath>
</defs>
</svg>
